<svg width="118" height="96" viewBox="0 0 118 96" fill="none" xmlns="http://www.w3.org/2000/svg">
<circle cx="48.3125" cy="48" r="48" fill="url(#paint0_linear_647_318275)"/>
<path d="M28.7891 67.5234C26.3453 65.0797 27.9656 59.9531 26.7172 56.9516C25.4688 53.95 20.6875 51.3203 20.6875 48C20.6875 44.6797 25.4156 42.1562 26.7172 39.0484C28.0188 35.9406 26.3453 30.9203 28.7891 28.4766C31.2328 26.0328 36.3594 27.6531 39.3609 26.4047C42.3625 25.1563 44.9922 20.375 48.3125 20.375C51.6328 20.375 54.1562 25.1031 57.2641 26.4047C60.3719 27.7063 65.3922 26.0328 67.8359 28.4766C70.2797 30.9203 68.6594 36.0469 69.9078 39.0484C71.1562 42.05 75.9375 44.6797 75.9375 48C75.9375 51.3203 71.2094 53.8438 69.9078 56.9516C68.6063 60.0594 70.2797 65.0797 67.8359 67.5234C65.3922 69.9672 60.2656 68.3469 57.2641 69.5953C54.2625 70.8438 51.6328 75.625 48.3125 75.625C44.9922 75.625 42.4688 70.8969 39.3609 69.5953C36.2531 68.2938 31.2328 69.9672 28.7891 67.5234Z" fill="url(#paint1_linear_647_318275)"/>
<path fill-rule="evenodd" clip-rule="evenodd" d="M61.7561 39.9495C62.6819 40.9199 62.6457 42.4572 61.6753 43.383L46.0831 58.258C45.1442 59.1538 43.667 59.1531 42.7288 58.2566L34.946 50.8191C33.9763 49.8924 33.9415 48.3552 34.8681 47.3855C35.7948 46.4158 37.3321 46.3809 38.3018 47.3076L44.4081 53.143L58.3225 39.8686C59.293 38.9428 60.8302 38.979 61.7561 39.9495Z" fill="url(#paint2_linear_647_318275)"/>
<defs>
<linearGradient id="paint0_linear_647_318275" x1="48.3125" y1="0" x2="48.3125" y2="96" gradientUnits="userSpaceOnUse">
<stop stop-color="#3F3F50"/>
<stop offset="0.0001" stop-color="#3F3F50"/>
<stop offset="1" stop-color="#11111E"/>
</linearGradient>
<linearGradient id="paint1_linear_647_318275" x1="75.9375" y1="20.7696" x2="13.5478" y2="61.0011" gradientUnits="userSpaceOnUse">
<stop stop-color="#B9790C"/>
<stop offset="0.546875" stop-color="#E7AD49"/>
<stop offset="1" stop-color="#FDB740"/>
</linearGradient>
<linearGradient id="paint2_linear_647_318275" x1="48.3114" y1="39.1973" x2="48.3114" y2="58.9294" gradientUnits="userSpaceOnUse">
<stop stop-color="#3F3F50"/>
<stop offset="0.0001" stop-color="#3F3F50"/>
<stop offset="1" stop-color="#11111E"/>
</linearGradient>
</defs>
</svg>
