<svg width="26" height="26" viewBox="0 0 26 26" fill="none" xmlns="http://www.w3.org/2000/svg">
<path opacity="0.2" d="M13 26C20.1797 26 26 20.1797 26 13C26 5.8203 20.1797 0 13 0C5.8203 0 0 5.8203 0 13C0 20.1797 5.8203 26 13 26Z" fill="#F7931A"/>
<path fill-rule="evenodd" clip-rule="evenodd" d="M18.5996 10.8072C18.2244 10.4983 17.7358 10.3436 17.134 10.3434C17.7597 9.77944 17.9142 9.04845 17.5978 8.15029C17.4855 7.82398 17.3251 7.55692 17.1163 7.34871C16.9073 7.14048 16.6587 6.99319 16.3696 6.90695C16.0806 6.82047 15.7785 6.77512 15.4638 6.7704C15.1489 6.7657 14.7957 6.79335 14.4044 6.85339L13.9281 4.94308L12.8097 5.22193L13.2728 7.07915C13.0791 7.12744 12.7851 7.20612 12.3906 7.31522L11.9238 5.44283L10.8052 5.72171L11.2815 7.63201C11.1229 7.67694 10.8888 7.73805 10.5789 7.81531L9.03733 8.19155L9.3473 9.43478L10.1534 9.2338C10.5214 9.14204 10.7797 9.26019 10.9283 9.5881L11.4708 11.7638C11.5193 11.7517 11.5586 11.7446 11.5889 11.7424L11.4727 11.7714L12.2325 14.8186C12.258 15.086 12.1498 15.2499 11.9076 15.3103L11.1016 15.5113L11.2223 16.9547L12.6749 16.5925C12.7669 16.5696 12.9003 16.5377 13.0752 16.4965C13.2501 16.4556 13.3811 16.4243 13.4683 16.4025L13.9503 18.3355L15.069 18.0566L14.5927 16.1463C14.7973 16.1008 15.0932 16.0297 15.4806 15.9331L15.955 17.8357L17.0734 17.5569L16.5914 15.6239C16.9835 15.5047 17.3263 15.3791 17.6197 15.2467C17.9133 15.1143 18.1858 14.9539 18.437 14.7651C18.6881 14.5764 18.886 14.3699 19.0307 14.146C19.1756 13.9221 19.2755 13.6582 19.3311 13.3545C19.3863 13.0508 19.3864 12.7153 19.3307 12.348C19.2188 11.6299 18.975 11.1163 18.5996 10.8072ZM12.7525 8.6741L12.7526 8.67408L13.3328 11.0013C13.3571 10.9952 13.4408 10.9757 13.5844 10.9426C13.7279 10.9095 13.8404 10.8814 13.9221 10.8584C14.0038 10.8354 14.1236 10.8 14.2815 10.7527C14.4395 10.7053 14.5691 10.6581 14.6706 10.6113C14.772 10.5646 14.8898 10.5057 15.0237 10.4347C15.1577 10.3638 15.2635 10.2877 15.341 10.2067C15.4185 10.1257 15.4912 10.0351 15.5588 9.935C15.6263 9.83497 15.6675 9.72132 15.682 9.59428C15.6966 9.46713 15.6862 9.3328 15.6509 9.19128C15.6093 9.02454 15.5422 8.88428 15.4495 8.77054C15.3569 8.65672 15.2566 8.56895 15.1486 8.50733C15.0408 8.44566 14.907 8.40383 14.7471 8.38201C14.5875 8.36007 14.4438 8.35159 14.3165 8.35654C14.1892 8.36148 14.0353 8.37834 13.8548 8.40724C13.6742 8.43616 13.5322 8.46485 13.4287 8.49331C13.3253 8.52181 13.1952 8.55689 13.0384 8.59875C12.8818 8.6405 12.7866 8.66561 12.7526 8.67408L12.7526 8.67405L12.7525 8.67407L12.7525 8.6741ZM16.9915 13.4226C17.0426 13.3186 17.0766 13.2027 17.0937 13.0749C17.1108 12.9471 17.1017 12.8127 17.0664 12.671C17.021 12.489 16.9444 12.3363 16.8364 12.213C16.7285 12.0896 16.61 11.9958 16.4808 11.9313C16.3515 11.8669 16.193 11.8246 16.0054 11.8043C15.8177 11.7839 15.6476 11.7767 15.4948 11.7826C15.3418 11.7885 15.157 11.8105 14.9404 11.8485C14.7234 11.8864 14.5545 11.9206 14.4334 11.9508C14.3124 11.981 14.1569 12.0223 13.9668 12.0751C13.7768 12.1279 13.6624 12.159 13.6237 12.1687L14.2626 14.731C14.3014 14.7213 14.3912 14.7003 14.5323 14.6676C14.6733 14.6351 14.7899 14.6075 14.8819 14.5846C14.9738 14.5616 15.1013 14.5258 15.264 14.4773C15.4268 14.4286 15.5658 14.3832 15.6812 14.341C15.7968 14.2987 15.9294 14.243 16.0794 14.1733C16.229 14.1037 16.3547 14.035 16.456 13.9666C16.5571 13.8985 16.659 13.8168 16.7612 13.7214C16.8634 13.6263 16.9402 13.5265 16.9915 13.4226Z" fill="#F7931A"/>
<path fill-rule="evenodd" clip-rule="evenodd" d="M13 24C19.0751 24 24 19.0751 24 13C24 6.92487 19.0751 2 13 2C6.92487 2 2 6.92487 2 13C2 19.0751 6.92487 24 13 24Z" stroke="#F7931A" stroke-width="1.38125"/>
</svg>
