<svg width="26" height="26" viewBox="0 0 26 26" fill="none" xmlns="http://www.w3.org/2000/svg">
<path opacity="0.2" d="M25.9293 12.9998C25.9293 20.1417 20.1397 25.9314 12.9979 25.9314C5.856 25.9314 0.0664062 20.1417 0.0664062 12.9998C0.0664062 5.85795 5.856 0.0683594 12.9979 0.0683594C20.1397 0.0683594 25.9293 5.85795 25.9293 12.9998Z" fill="#F6D43D"/>
<path d="M16.632 18.4035L16.3336 17.0485C16.3167 16.9688 16.274 16.9091 16.2057 16.8695C16.1318 16.8297 16.058 16.8241 15.9842 16.8526L15.9415 16.8695L15.8391 16.895C15.7936 16.9063 15.7411 16.9192 15.6814 16.9333C15.6218 16.9476 15.5523 16.9616 15.4726 16.9759C15.3934 16.9901 15.3092 17.003 15.2213 17.0144C15.1333 17.0255 15.0383 17.0356 14.9359 17.0442C14.8335 17.0526 14.7314 17.0569 14.629 17.0569C13.9074 17.0569 13.2582 16.8623 12.6816 16.4731C12.1049 16.0838 11.6802 15.5568 11.4075 14.8922H14.7056C14.7682 14.8922 14.825 14.871 14.876 14.8282C14.9273 14.7857 14.9585 14.7332 14.9697 14.6705L15.1742 13.716C15.1913 13.631 15.1742 13.5542 15.1232 13.4859C15.0664 13.4177 14.9952 13.3836 14.9101 13.3836H10.9985C10.9814 12.9972 10.9814 12.699 10.9985 12.4887H15.1574C15.311 12.4887 15.4018 12.4149 15.4302 12.2672L15.6347 11.2956C15.6516 11.2161 15.632 11.1423 15.575 11.074C15.5241 11.0059 15.4531 10.9716 15.3621 10.9716H11.3735C11.6576 10.3353 12.0837 9.83531 12.6519 9.47167C13.2201 9.10794 13.8621 8.92618 14.578 8.92618C14.6008 8.91484 14.6845 8.9177 14.8293 8.93472C14.9742 8.95167 15.0567 8.95884 15.0765 8.95597C15.0961 8.95316 15.1703 8.96173 15.298 8.98149C15.4259 9.00137 15.4898 9.01134 15.4898 9.01134L15.639 9.04113C15.6817 9.04973 15.7143 9.05672 15.737 9.06248L15.7711 9.07096C15.8449 9.09379 15.9129 9.08663 15.9757 9.04973C16.0382 9.01269 16.078 8.95737 16.0951 8.88352L16.4616 7.52845C16.4786 7.45457 16.47 7.38639 16.4361 7.32391C16.3849 7.25561 16.328 7.21301 16.2655 7.19603C15.7428 7.06537 15.1915 7 14.6121 7C13.3392 7 12.2016 7.36373 11.1988 8.0909C10.1959 8.81812 9.50413 9.77842 9.12345 10.9715H8.28831C8.20873 10.9715 8.14345 10.997 8.09228 11.0482C8.04127 11.0993 8.01562 11.1646 8.01562 11.2442V12.2158C8.01562 12.2953 8.04118 12.3607 8.09228 12.4117C8.14348 12.4629 8.20885 12.4884 8.28831 12.4884H8.85936C8.84219 12.7612 8.83948 13.0593 8.85076 13.3833H8.28831C8.21446 13.3833 8.15055 13.4103 8.09658 13.4642C8.04264 13.5182 8.01562 13.5821 8.01562 13.6559V14.619C8.01562 14.693 8.04264 14.7567 8.09658 14.8108C8.15058 14.8648 8.21446 14.8916 8.28831 14.8916H9.09798C9.45592 16.1472 10.1321 17.1459 11.1264 17.8873C12.1208 18.629 13.2827 18.9996 14.6121 18.9996C14.7202 18.9996 14.8295 18.9969 14.9403 18.991C15.0514 18.9853 15.1548 18.9767 15.2515 18.9655C15.348 18.9542 15.4432 18.9416 15.537 18.9273C15.6307 18.913 15.716 18.899 15.7926 18.8845C15.8693 18.8704 15.9417 18.8563 16.0099 18.8421C16.0781 18.8278 16.1392 18.8123 16.1932 18.7952C16.2472 18.7783 16.2924 18.7654 16.3295 18.7571C16.3665 18.7485 16.3963 18.7384 16.4189 18.7273L16.4616 18.7187C16.5241 18.696 16.5724 18.6547 16.6065 18.595C16.6406 18.5356 16.6489 18.4716 16.632 18.4035Z" fill="#FBE41A"/>
</svg>
