<svg width="26" height="26" viewBox="0 0 26 26" fill="none" xmlns="http://www.w3.org/2000/svg">
<path d="M13 22C17.9706 22 22 17.9706 22 13C22 8.02944 17.9706 4 13 4C8.02944 4 4 8.02944 4 13C4 17.9706 8.02944 22 13 22Z" fill="white"/>
<path d="M20.5019 17.8224H16.9499V13L13.0002 16.8972L9.05038 13V17.8224H5.49843H5.38477C6.97604 20.3178 9.78919 22 13.0002 22C16.2111 22 19.0243 20.3458 20.6155 17.8224H20.5019Z" fill="#4C4C4C"/>
<path d="M7.17981 15.7692V8.35377L13 14.112L18.8202 8.35377V15.7692H21.5173C21.8297 14.8704 22 13.9154 22 12.9042C22 7.98862 17.9685 4 13 4C8.03155 4 4 7.98862 4 12.9042C4 13.9154 4.17035 14.8704 4.48265 15.7692H7.17981Z" fill="#FF6B01"/>
<path opacity="0.1" d="M25.9293 12.9998C25.9293 20.1417 20.1397 25.9314 12.9979 25.9314C5.856 25.9314 0.0664062 20.1417 0.0664062 12.9998C0.0664062 5.85795 5.856 0.0683594 12.9979 0.0683594C20.1397 0.0683594 25.9293 5.85795 25.9293 12.9998Z" fill="#BEBEBE"/>
</svg>
