<svg width="26" height="26" viewBox="0 0 26 26" fill="none" xmlns="http://www.w3.org/2000/svg">
<path opacity="0.2" d="M25.9293 12.9998C25.9293 20.1417 20.1397 25.9314 12.9979 25.9314C5.856 25.9314 0.0664062 20.1417 0.0664062 12.9998C0.0664062 5.85795 5.856 0.0683594 12.9979 0.0683594C20.1397 0.0683594 25.9293 5.85795 25.9293 12.9998Z" fill="#D69331"/>
<path d="M11.9487 15.8282H16.1331V17.9106H13.5566C13.5986 18.5065 13.6216 19.0587 13.6635 19.6525H11.4959V17.9314H8.91938C8.91938 17.2504 8.83342 16.5715 8.9613 15.9341C9.02629 15.5936 9.41203 15.2968 9.64893 14.9999C10.4644 14.0428 11.2799 13.1085 12.1164 12.1514C12.4392 11.7902 12.76 11.4497 13.1248 11.0469H9.11225V8.96454H11.4938V7.22266H13.5755V8.92301H16.1729C16.1729 9.62475 16.2589 10.3036 16.131 10.9431C16.066 11.2836 15.6803 11.5805 15.4224 11.8774C14.6069 12.8345 13.7914 13.7687 12.955 14.7258C12.6363 15.1058 12.3156 15.4442 11.9487 15.8282Z" fill="#D69331"/>
</svg>
