<svg width="20" height="20" viewBox="0 0 20 20" fill="none" xmlns="http://www.w3.org/2000/svg">
<path d="M7.5 17.5H12.5" stroke="white" stroke-linecap="round" stroke-linejoin="round"/>
<path d="M4.38842 8.75C4.38842 8.01337 4.53351 7.28395 4.81541 6.60339C5.09731 5.92282 5.51049 5.30445 6.03137 4.78357C6.55225 4.26269 7.17062 3.84951 7.85118 3.56761C8.53174 3.28572 9.26116 3.14062 9.9978 3.14062C10.7344 3.14062 11.4639 3.28572 12.1444 3.56761C12.825 3.84951 13.4433 4.26269 13.9642 4.78357C14.4851 5.30445 14.8983 5.92282 15.1802 6.60339C15.4621 7.28395 15.6072 8.01337 15.6072 8.75V8.75C15.6072 11.5469 16.1931 13.1719 16.7087 14.0625C16.7635 14.1574 16.7924 14.2649 16.7925 14.3745C16.7926 14.484 16.7639 14.5916 16.7093 14.6865C16.6547 14.7815 16.5761 14.8604 16.4814 14.9154C16.3867 14.9705 16.2792 14.9996 16.1697 15H3.82592C3.7164 14.9996 3.6089 14.9705 3.5142 14.9154C3.41949 14.8604 3.3409 14.7815 3.28631 14.6865C3.23171 14.5916 3.20303 14.484 3.20313 14.3745C3.20322 14.2649 3.2321 14.1574 3.28686 14.0625C3.80249 13.1719 4.38842 11.5469 4.38842 8.75Z" stroke="white" stroke-linecap="round" stroke-linejoin="round"/>
<path d="M14.3281 1.875C15.6007 2.67829 16.6277 3.81615 17.2969 5.16406" stroke="white" stroke-linecap="round" stroke-linejoin="round"/>
<path d="M2.70312 5.16406C3.37228 3.81615 4.39933 2.67829 5.67188 1.875" stroke="white" stroke-width="1.5" stroke-linecap="round" stroke-linejoin="round"/>
</svg>
