<svg width="176" height="57" viewBox="0 0 176 57" fill="none" xmlns="http://www.w3.org/2000/svg">
<path d="M86.1843 38.0935C88.4095 32.3897 85.5894 25.962 79.8856 23.7369C74.1818 21.5117 67.7541 24.3318 65.529 30.0356C63.3038 35.7394 66.1239 42.1671 71.8277 44.3922C77.5315 46.6174 83.9592 43.7973 86.1843 38.0935Z" fill="#00A998"/>
<path d="M107.794 23.5818C110.019 17.8779 107.199 11.4503 101.495 9.22513C95.7911 7.00001 89.3635 9.82004 87.1383 15.5239C84.9132 21.2277 87.7332 27.6554 93.4371 29.8805C99.1409 32.1056 105.569 29.2856 107.794 23.5818Z" fill="#FDB740"/>
<path d="M126.462 36.151C128.242 31.5879 125.986 26.4458 121.423 24.6657C116.86 22.8856 111.718 25.1416 109.938 29.7046C108.158 34.2677 110.414 39.4099 114.977 41.19C119.54 42.9701 124.682 40.714 126.462 36.151Z" fill="#ED1163"/>
</svg>
