<svg width="176" height="24" viewBox="0 0 176 24" fill="none" xmlns="http://www.w3.org/2000/svg">
<g clip-path="url(#clip0_647_317839)">
<path d="M4.73303 4.22279V24.0004H0V0H18.0769V4.22279H4.73303Z" fill="white"/>
<path d="M26.9929 24.0004H22.0898V0H26.9929V24.0004Z" fill="white"/>
<path d="M53.9984 0V24.0004H51.6173L37.2871 8.88779V24.0004H32.418V0H34.7991L49.0953 15.1126V0H53.9984Z" fill="white"/>
<path d="M69.3371 24.0004H59.0547V0H68.5499C75.2218 0 80.6352 5.37932 80.6352 12.0172C80.6352 18.6551 75.63 24.0004 69.3323 24.0004H69.3371ZM68.9289 19.5395C72.7435 19.5395 75.839 16.0311 75.839 12.0172C75.839 8.00338 72.5686 4.4609 68.5548 4.4609H63.7877V19.5395H68.9289Z" fill="white"/>
<path d="M102.597 19.7776V24.0004H84.1797V0H101.882V4.22279H88.9127V19.7776H102.597Z" fill="white"/>
<path d="M117.272 17.8047C117 17.8387 116.66 17.8387 116.353 17.8387H111.893V24.0004H107.023V0H117.612C124.624 0 127.005 4.15476 127.005 8.64482C127.005 12.7656 125.304 15.4868 122.136 16.8474L127.719 23.9956H121.898L117.267 17.7999L117.272 17.8047ZM111.893 13.82H116.183C120.066 13.82 121.903 11.8471 121.903 9.01899C121.903 6.53585 120.61 4.21793 116.83 4.21793H111.893V13.8152V13.82Z" fill="white"/>
<path d="M150.015 19.7776V24.0004H131.598V0H149.3V4.22279H136.331V19.7776H150.015Z" fill="white"/>
<path d="M169.417 0H174.83L166.661 11.8812L175.068 24.0004H169.519L163.493 15.6277L157.467 24.0004H151.918L160.359 11.8812L152.156 0H157.603L163.493 8.1686L169.417 0Z" fill="white"/>
<path d="M10.0256 16.8091C12.6825 16.8091 14.8364 14.6552 14.8364 11.9983C14.8364 9.34136 12.6825 7.1875 10.0256 7.1875C7.3687 7.1875 5.21484 9.34136 5.21484 11.9983C5.21484 14.6552 7.3687 16.8091 10.0256 16.8091Z" fill="#00A998"/>
<path d="M94.2053 16.8091C96.8622 16.8091 99.0161 14.6552 99.0161 11.9983C99.0161 9.34136 96.8622 7.1875 94.2053 7.1875C91.5484 7.1875 89.3945 9.34136 89.3945 11.9983C89.3945 14.6552 91.5484 16.8091 94.2053 16.8091Z" fill="#FDB740"/>
<path d="M141.623 16.8091C144.28 16.8091 146.434 14.6552 146.434 11.9983C146.434 9.34136 144.28 7.1875 141.623 7.1875C138.966 7.1875 136.812 9.34136 136.812 11.9983C136.812 14.6552 138.966 16.8091 141.623 16.8091Z" fill="#ED1163"/>
</g>
<defs>
<clipPath id="clip0_647_317839">
<rect width="175.069" height="24.0004" fill="white"/>
</clipPath>
</defs>
</svg>
